<?xml version="1.0" encoding="UTF-8" standalone="no"?>
<svg
   xmlns:dc="http://purl.org/dc/elements/1.1/"
   xmlns:cc="http://creativecommons.org/ns#"
   xmlns:rdf="http://www.w3.org/1999/02/22-rdf-syntax-ns#"
   xmlns:svg="http://www.w3.org/2000/svg"
   xmlns="http://www.w3.org/2000/svg"
   xmlns:xlink="http://www.w3.org/1999/xlink"
   xmlns:sodipodi="http://sodipodi.sourceforge.net/DTD/sodipodi-0.dtd"
   xmlns:inkscape="http://www.inkscape.org/namespaces/inkscape"
   inkscape:version="1.0 (4035a4fb49, 2020-05-01)"
   sodipodi:docname="system-suspend-hibernate.svg"
   id="svg11"
   version="1.1"
   viewBox="0 0 24 24">
  <metadata
     id="metadata17">
    <rdf:RDF>
      <cc:Work
         rdf:about="">
        <dc:format>image/svg+xml</dc:format>
        <dc:type
           rdf:resource="http://purl.org/dc/dcmitype/StillImage" />
      </cc:Work>
    </rdf:RDF>
  </metadata>
  <defs
     id="defs15">
    <linearGradient
       id="linearGradient846"
       inkscape:collect="always">
      <stop
         id="stop842"
         offset="0"
         style="stop-color:#00d4aa;stop-opacity:1" />
      <stop
         id="stop844"
         offset="1"
         style="stop-color:#0094d4;stop-opacity:1" />
    </linearGradient>
    <linearGradient
       gradientUnits="userSpaceOnUse"
       y2="15.039569"
       x2="15.676917"
       y1="6.6313286"
       x1="7.0808711"
       id="linearGradient848"
       xlink:href="#linearGradient846"
       inkscape:collect="always" />
    <linearGradient
       gradientUnits="userSpaceOnUse"
       y2="7"
       x2="15"
       y1="7"
       x1="11"
       id="linearGradient856"
       xlink:href="#linearGradient846"
       inkscape:collect="always" />
  </defs>
  <sodipodi:namedview
     inkscape:current-layer="svg11"
     inkscape:window-maximized="1"
     inkscape:window-y="0"
     inkscape:window-x="0"
     inkscape:cy="12"
     inkscape:cx="12"
     inkscape:zoom="26.166667"
     showgrid="false"
     id="namedview13"
     inkscape:window-height="1013"
     inkscape:window-width="1920"
     inkscape:pageshadow="2"
     inkscape:pageopacity="0"
     guidetolerance="10"
     gridtolerance="10"
     objecttolerance="10"
     borderopacity="1"
     bordercolor="#666666"
     pagecolor="#ffffff" />
  <style
     id="current-color-scheme"
     type="text/css">
        .ColorScheme-Text {
            color:#eff0f1;
        }
    </style>
  <g
     id="g9"
     transform="translate(1,1)">
    <g
       id="g7"
       fill="currentColor"
       class="ColorScheme-Text">
      <path
         style="fill-opacity:1;fill:url(#linearGradient848)"
         id="path3"
         d="M 6.79,3.707 5.922,4.207 7.568,7.057 5.32,6.455 5.06,7.422 8.275,8.283 9.845,11 H 6.708 L 4.354,8.646 3.646,9.354 5.293,11 H 2 v 1 H 5.293 L 3.646,13.646 4.354,14.354 6.707,12 H 9.84 l -1.567,2.713 -3.214,0.861 0.257,0.967 2.25,-0.604 -1.646,2.853 0.865,0.5 1.647,-2.852 0.603,2.25 L 10,18.428 9.139,15.212 10.994,12 H 11 l 1.857,3.219 -0.86,3.215 0.966,0.257 0.601,-2.248 1.647,2.852 0.867,-0.5 -1.646,-2.852 2.248,0.602 L 16.94,15.58 13.725,14.719 12.155,12 h 3.138 l 2.353,2.354 0.708,-0.708 L 16.707,12 H 20 V 11 H 16.707 L 18.354,9.354 18.303,9.294 H 17 L 15.293,11 H 11 V 10.998 L 10.996,10.996 9.143,7.783 10.003,4.568 9.037,4.308 8.436,6.558 Z M 16,3 v 1 h 2.293 l -2,2 L 16,6.293 V 7 h 4 V 6 h -2.293 l 2,-2 L 20,3.707 V 3 h -0.707 z" />
      <path
         style="fill-opacity:1.0;fill:url(#linearGradient856)"
         id="path5"
         d="m 11,5 v 1 h 2.293 l -2,2 L 11,8.293 V 9 h 4 V 8 h -2.293 l 2,-2 L 15,5.707 V 5 h -0.707 z" />
    </g>
  </g>
</svg>
