<?xml version="1.0" encoding="UTF-8" standalone="no"?>
<svg
   xmlns:dc="http://purl.org/dc/elements/1.1/"
   xmlns:cc="http://creativecommons.org/ns#"
   xmlns:rdf="http://www.w3.org/1999/02/22-rdf-syntax-ns#"
   xmlns:svg="http://www.w3.org/2000/svg"
   xmlns="http://www.w3.org/2000/svg"
   xmlns:xlink="http://www.w3.org/1999/xlink"
   xmlns:sodipodi="http://sodipodi.sourceforge.net/DTD/sodipodi-0.dtd"
   xmlns:inkscape="http://www.inkscape.org/namespaces/inkscape"
   inkscape:version="1.0 (4035a4fb49, 2020-05-01)"
   sodipodi:docname="system-suspend.svg"
   id="svg9"
   version="1.1"
   viewBox="0 0 32 32">
  <metadata
     id="metadata15">
    <rdf:RDF>
      <cc:Work
         rdf:about="">
        <dc:format>image/svg+xml</dc:format>
        <dc:type
           rdf:resource="http://purl.org/dc/dcmitype/StillImage" />
      </cc:Work>
    </rdf:RDF>
  </metadata>
  <defs
     id="defs13">
    <linearGradient
       id="linearGradient844"
       inkscape:collect="always">
      <stop
         id="stop840"
         offset="0"
         style="stop-color:#00d4aa;stop-opacity:1" />
      <stop
         id="stop842"
         offset="1"
         style="stop-color:#0094d4;stop-opacity:1" />
    </linearGradient>
    <linearGradient
       gradientUnits="userSpaceOnUse"
       y2="12.5"
       x2="24"
       y1="12"
       x1="14"
       id="linearGradient846"
       xlink:href="#linearGradient844"
       inkscape:collect="always" />
    <linearGradient
       gradientUnits="userSpaceOnUse"
       y2="24.945044"
       x2="22.188646"
       y1="9.3817768"
       x1="7.8250523"
       id="linearGradient854"
       xlink:href="#linearGradient844"
       inkscape:collect="always" />
  </defs>
  <sodipodi:namedview
     inkscape:current-layer="svg9"
     inkscape:window-maximized="1"
     inkscape:window-y="0"
     inkscape:window-x="0"
     inkscape:cy="16"
     inkscape:cx="16"
     inkscape:zoom="19.625"
     showgrid="false"
     id="namedview11"
     inkscape:window-height="1013"
     inkscape:window-width="1920"
     inkscape:pageshadow="2"
     inkscape:pageopacity="0"
     guidetolerance="10"
     gridtolerance="10"
     objecttolerance="10"
     borderopacity="1"
     bordercolor="#666666"
     pagecolor="#ffffff" />
  <style
     id="current-color-scheme"
     type="text/css">
        .ColorScheme-Text {
            color:#eff0f1;
        }
    </style>
  <g
     id="g7"
     fill="currentColor"
     class="ColorScheme-Text">
    <path
       style="fill-opacity:1;fill:url(#linearGradient854)"
       id="path3"
       d="M 9.762,5.762 A 12,12 0 0 0 9.758,5.77 12,12 0 0 0 4,16 12,12 0 0 0 16,28 12,12 0 0 0 26.238,22.238 L 25.506,21.506 A 11,11 0 0 1 20,23 11,11 0 0 1 9,12 11,11 0 0 1 10.486,6.498 11,11 0 0 1 10.494,6.494 Z M 8.8,7.702 A 12,12 0 0 0 8,12 12,12 0 0 0 20,24 12,12 0 0 0 24.326,23.18 11,11 0 0 1 16,27 11,11 0 0 1 5,16 11,11 0 0 1 8.8,7.701 Z M 22,6 v 1 h 2.293 l -2,2 L 22,9.293 V 10 h 4 V 9 h -2.293 l 2,-2 L 26,6.707 V 6 h -0.707 z" />
    <path
       style="fill-opacity:1;fill:url(#linearGradient846)"
       id="path5"
       d="m 20,13 v 1 h 2.293 l -2,2 L 20,16.293 V 17 h 4 v -1 h -2.293 l 2,-2 L 24,13.707 V 13 H 23.293 Z M 14,8 v 1 h 2.293 l -2,2 L 14,11.293 V 12 h 4 v -1 h -2.293 l 2,-2 L 18,8.707 V 8 h -0.707 z" />
  </g>
</svg>
